<svg version="1.2" baseProfile="tiny-ps" xmlns="http://www.w3.org/2000/svg" viewBox="0 0 1024 1024" width="1024" height="1024">
	<title>mao-01-svg</title>
	<style>
		tspan { white-space:pre }
		.shp0 { fill: #000000 } 
	</style>
	<g id="Layer">
		<path id="Layer" fill-rule="evenodd" class="shp0" d="M413.32 396.95C509.4 427.63 526 456.81 498.83 545.34C537.06 558.92 585.36 538.8 611.51 494.03C589.88 491.52 551.15 494.54 514.43 508.12C557.69 484.48 590.39 484.48 617.55 482.46C620.57 476.43 624.59 462.85 625.1 458.82C607.49 450.77 594.41 449.26 540.08 456.31C566.74 449.77 590.89 443.23 625.6 449.26C628.11 408.52 610.51 373.31 578.31 339.1C610 333.06 635.16 342.12 661.31 350.17C671.37 353.18 683.95 353.69 694.01 351.17C729.22 341.11 764.44 330.04 802.16 337.09C807.19 338.09 817.76 331.05 819.77 325.52C828.32 302.88 834.36 279.74 841.4 257.1C867.05 269.68 885.67 302.88 927.92 409.02C948.55 407.51 991.81 408.01 992.31 410.03C963.13 410.53 944.52 415.06 931.44 423.61C930.94 429.64 931.95 434.68 935.97 443.73C984.26 440.71 1010.92 451.28 1024 454.8C1001.36 448.76 951.06 446.24 935.47 456.31C945.53 559.43 926.41 653.49 872.08 739.01C776 889.92 596.93 961.85 419.35 922.62C249.83 885.39 120.05 744.54 94.4 569.49C59.69 334.07 232.23 115.75 469.66 93.12C540.59 86.58 609 94.12 670.37 130.84C695.02 145.43 715.64 169.07 734.25 192.21C747.84 209.32 748.84 231.95 731.74 249.56C714.63 267.17 695.02 262.64 676.4 252.58C660.31 244.03 644.71 233.97 629.12 224.41C486.26 133.36 299.63 173.1 210.6 313.95C200.54 330.04 191.98 348.15 187.96 366.26C178.91 407.51 203.05 431.15 244.8 422.6C294.6 412.04 329.81 381.86 353.96 338.09C368.05 312.44 380.62 285.78 396.72 261.63C403.26 252.07 415.33 237.99 427.4 241.01C439.48 244.03 444 262.64 445.01 274.21C449.54 317.97 436.96 359.22 413.32 396.95ZM760.41 707.32C740.29 730.96 714.13 741.53 684.45 746.56C639.68 754.1 599.44 771.71 572.28 810.44C560.2 827.04 555.68 846.16 572.78 862.76C588.88 878.35 604.97 870.3 620.57 860.24C624.59 857.73 628.62 854.71 632.64 851.69C665.34 826.54 697.53 799.88 744.31 810.94C717.65 795.85 692.5 800.38 669.36 815.47C651.76 826.54 636.66 841.63 618.56 851.69C610 856.72 591.39 859.23 588.37 855.21C581.33 846.16 575.8 828.55 580.33 820C589.38 803.4 603.46 785.79 619.56 777.24C646.22 764.16 675.9 758.13 704.57 750.08C729.73 744.04 752.36 735.99 760.41 707.32ZM277 759.63C340.88 756.11 380.12 709.33 373.08 653.49C367.04 607.22 339.88 575.02 304.66 547.35C292.09 537.29 282.03 528.74 267.94 543.83C341.38 592.63 367.04 628.34 361.51 676.63C356.48 723.42 325.29 746.56 277 759.63ZM618.05 606.21C619.56 610.74 621.07 615.26 622.08 620.29C634.15 677.14 591.39 744.54 536.06 753.6C526.5 755.11 511.91 751.08 505.88 744.04C501.35 738.51 503.86 723.42 507.89 714.86C515.43 699.27 527.51 686.19 535.56 670.6C543.6 655 546.62 638.4 526.5 620.29C541.59 659.53 518.45 680.66 501.35 705.31C494.31 715.37 487.26 734.48 492.29 742.53C498.33 752.59 515.94 761.14 529.02 761.65C568.25 763.66 594.41 740.52 613.53 708.83C634.15 676.13 639.68 641.42 618.05 606.21ZM896.23 434.68C896.23 409.52 876.61 391.41 848.94 390.91C819.27 390.41 795.62 411.54 795.62 438.2C795.62 461.34 818.76 480.95 844.92 480.45C875.61 479.95 896.23 461.34 896.23 434.68ZM728.72 452.78C729.22 428.64 714.13 411.54 692.5 411.03C666.34 411.03 639.68 435.68 640.19 460.83C640.19 482.46 655.78 498.56 677.41 499.06C704.57 500.07 728.22 478.44 728.72 452.78ZM165.83 499.06C225.18 496.05 277 472.91 326.29 441.72C332.83 437.69 342.89 432.66 346.92 434.68C352.95 437.69 357.98 452.78 356.48 460.83C353.46 473.91 346.42 486.49 337.86 497.55C330.82 507.11 319.75 514.15 310.7 522.2C322.77 517.68 333.34 510.13 341.89 501.58C359.49 484.48 369.55 464.35 361.51 438.7C355.97 421.09 347.42 415.06 331.32 427.63C281.52 464.86 225.69 486.49 165.83 499.06ZM745.82 488C743.81 499.57 757.39 496.55 758.4 505.6C758.9 508.62 763.43 512.65 754.88 520.69C746.33 528.74 722.18 530.75 713.63 517.68C718.16 538.3 750.35 535.78 761.42 520.69C772.99 537.8 809.21 539.81 819.77 514.66C803.17 535.28 770.47 529.75 764.94 517.17C762.42 511.64 764.44 506.61 764.94 504.09C767.96 497.05 779.02 499.57 778.52 486.49C770.47 484.48 757.39 483.47 745.82 488ZM846.93 403.49C867.05 403.99 883.15 417.57 882.14 434.68C881.14 451.78 862.53 467.88 844.42 468.38C826.81 468.38 808.2 449.77 808.7 433.17C809.71 417.57 828.32 403.49 846.93 403.49ZM675.9 486.99C659.8 484.48 654.27 473.91 653.26 462.34C651.76 443.73 668.86 425.12 689.99 425.12C707.59 425.12 718.66 432.66 718.16 451.78C718.16 469.89 705.08 488.5 675.9 486.99Z" />
	</g>
</svg>