<svg width="1024" height="1024" xmlns="http://www.w3.org/2000/svg" stroke="null" style="vector-effect: non-scaling-stroke;">

 <g stroke="null">
  <title stroke="null">background</title>
  <rect stroke="null" fill="none" id="canvas_background" height="1026" width="1026" y="-1" x="-1"/>
 </g>
 <g stroke="null">
  <title stroke="null">Layer 1</title>
  <path stroke="null" d="m410.567869,395.981217c94.926783,31.098477 111.327544,60.676458 84.48363,150.413986c37.771138,13.76521 85.491394,-6.629208 111.327544,-52.009843c-21.370377,-2.544239 -59.635511,0.516948 -95.914775,14.282196c42.740754,-23.962437 75.04828,-23.962437 101.882269,-26.009999c2.983747,-6.112259 6.955486,-19.877469 7.459367,-23.962437c-17.398638,-8.159782 -30.321618,-9.690395 -83.999521,-2.544239c26.339993,-6.629208 50.200122,-13.258415 84.493516,-7.146156c2.479865,-41.295667 -14.908887,-76.985907 -46.722379,-111.66252c31.309648,-6.122375 56.167654,3.061188 82.003765,11.221008c9.939271,3.051072 22.368255,3.56802 32.307526,1.013626c34.787391,-10.197228 69.584629,-21.418198 106.851885,-14.272042c4.969616,1.013626 15.412769,-6.122375 17.398638,-11.727802c8.447359,-22.948811 14.414891,-46.404416 21.370377,-69.353227c25.342116,12.751583 43.738632,46.404416 85.481508,153.992122c20.382385,-1.530613 63.123139,-1.023781 63.617135,1.023781c-28.829744,0.506832 -47.216375,5.098595 -60.139392,13.76521c-0.493996,6.112259 0.503882,11.221008 4.47562,20.394417c47.71037,-3.061188 74.050402,7.652988 86.973382,11.221008c-22.368255,-6.122375 -72.064533,-8.676769 -87.467377,1.530613c9.939271,104.526518 -8.951241,199.869435 -62.629144,286.555891c-94.926783,152.968341 -271.847446,225.879434 -447.296006,186.114341c-167.485273,-37.737801 -295.707574,-180.508914 -321.049689,-357.946525c-34.293395,-238.631017 136.175664,-459.928804 370.755853,-482.86746c70.078625,-6.629208 137.667537,1.013626 198.300925,38.234479c24.354124,14.78899 44.726623,38.751427 63.113253,62.207071c13.4269,17.343384 14.414891,40.28204 -2.479865,58.132218c-16.904643,17.850178 -36.279264,13.258415 -54.67578,3.061188c-15.896879,-8.666615 -31.309648,-18.863843 -46.712493,-28.554238c-141.14528,-92.291883 -325.535196,-52.009843 -413.496607,90.76127c-9.939271,16.309449 -18.396516,34.666459 -22.368255,53.023469c-8.941393,41.812615 14.908887,65.775052 56.157768,57.108438c49.202244,-10.704022 83.989635,-41.295667 107.849763,-85.662676c13.920896,-25.999844 26.339993,-53.023469 42.246758,-77.502893c6.46149,-9.690395 18.38663,-23.962437 30.31177,-20.90125c11.934988,3.061188 16.400761,21.92503 17.398638,33.652833c4.47562,44.356855 -7.953363,86.169508 -31.309648,124.414103l0.000038,0.000038zm342.923948,314.603297c-19.878504,23.962437 -45.724501,34.676613 -75.04828,39.775208c-44.232628,7.642834 -83.989635,25.49305 -110.823662,64.75131c-11.934988,16.826397 -16.400761,36.207188 0.493996,53.033624c15.906765,15.802655 31.803644,7.642834 47.216375,-2.554355c3.971739,-2.544239 7.953363,-5.605427 11.92514,-8.666615c32.307526,-25.49305 64.111131,-52.516675 110.329666,-41.305821c-26.339993,-15.295823 -51.188151,-10.704022 -74.050402,4.591801c-17.388752,11.221008 -32.307526,26.516793 -50.190274,36.71402c-8.457245,5.098595 -26.843875,7.642834 -29.827622,3.56802c-6.955486,-9.173447 -12.419136,-27.023625 -7.943516,-35.69024c8.941393,-16.826397 22.852364,-34.676613 38.759129,-43.343228c26.339993,-13.258415 55.663772,-19.370637 83.989635,-27.530457c24.858006,-6.122375 47.216375,-14.282196 55.169776,-43.343228l0.000038,-0.000038zm-477.607738,53.023469c63.113253,-3.56802 101.882269,-50.986062 94.926783,-107.587706c-5.967494,-46.901094 -32.801521,-79.5403 -67.59876,-107.587706c-12.419136,-10.197228 -22.358369,-18.863843 -36.279264,-3.56802c72.558528,49.465604 97.91053,85.662676 92.446918,134.611331c-4.969616,47.428196 -35.785268,70.883801 -83.495639,84.132063l-0.000038,0.000038zm336.956454,-155.51258c1.491873,4.591801 2.983747,9.173447 3.981625,14.272042c11.92514,57.625424 -30.321618,125.944716 -84.987512,135.128279c-9.445237,1.530613 -23.860128,-2.554355 -29.817774,-9.690395c-4.47562,-5.605427 -1.995755,-20.90125 1.985869,-29.578019c7.449481,-15.802655 19.384508,-29.061032 27.337871,-44.863687c7.943516,-15.812771 10.927263,-32.639206 -8.951241,-50.996217c14.908887,39.775208 -7.953363,61.193406 -24.84812,86.179624c-6.955486,10.197228 -13.920896,29.567864 -8.951241,37.727647c5.967494,10.197228 23.366132,18.863843 36.28915,19.380791c38.759129,2.037407 64.605127,-21.418198 83.495639,-53.540456c20.372499,-33.146 25.836111,-68.329446 4.465734,-104.019686l0,0.000077zm274.841079,-173.869591c0,-25.503166 -19.384508,-43.860176 -46.722379,-44.367009c-29.313893,-0.506832 -52.680025,20.911366 -52.680025,47.935029c0,23.455605 22.862251,43.333074 48.708248,42.82628c30.321618,-0.506832 50.694156,-19.370637 50.694156,-46.394262l0,-0.000038zm-165.499404,18.346894c0.493996,-24.46927 -14.414891,-41.802499 -35.785268,-42.319447c-25.845997,0 -52.186029,24.986218 -51.682147,50.47923c0,21.92503 15.402883,38.244633 36.77326,38.751427c26.833989,1.023781 50.200122,-20.90125 50.694156,-46.911248l0,0.000038zm-556.133761,46.911248c58.637633,-3.051072 109.83567,-26.506677 158.534032,-58.122102c6.46149,-4.084968 16.400761,-9.183563 20.382385,-7.13604c5.957608,3.051072 10.927263,18.346894 9.445237,26.506677c-2.983747,13.258415 -9.939271,26.009999 -18.396516,37.220853c-6.955486,9.690395 -17.892634,16.826397 -26.833989,24.986218c11.92514,-4.581646 22.368255,-12.234635 30.815652,-20.90125c17.388752,-17.33323 27.327985,-37.737801 19.384508,-63.737645c-5.473498,-17.850178 -13.920896,-23.962437 -29.827622,-11.221008c-49.202244,37.737801 -104.362134,59.662831 -163.503649,72.40426l-0.000038,0.000038zm573.028517,-11.210854c-1.985869,11.727802 11.431144,8.666615 12.429022,17.840062c0.493996,3.061188 4.969616,7.146156 -3.477743,15.295823c-8.447359,8.159782 -32.307526,10.197228 -40.754885,-3.051072c4.47562,20.90125 36.279264,18.346894 47.216375,3.051072c11.431144,17.343384 47.216375,19.380791 57.649641,-6.112259c-16.400761,20.90125 -48.708248,15.295823 -54.171898,2.544239c-2.489751,-5.605427 -0.493996,-10.704022 0,-13.258415c2.983747,-7.13604 13.91101,-4.581646 13.417014,-17.840062c-7.953363,-2.037407 -20.876381,-3.061188 -32.307526,1.530613zm99.896399,-85.662676c19.878504,0.506832 35.785268,14.272042 34.787391,31.615426c-0.987992,17.33323 -19.374622,33.652833 -37.267256,34.159665c-17.398638,0 -35.785268,-18.863843 -35.291273,-35.69024c0.997878,-15.812771 19.384508,-30.084813 37.771138,-30.084813l0,-0.000038zm-168.977185,84.638895c-15.906765,-2.544239 -21.370377,-13.258415 -22.368255,-24.986218c-1.481987,-18.863843 15.412769,-37.727647 36.28915,-37.727647c17.388752,0 28.325863,7.642834 27.831867,27.023625c0,18.35701 -12.923018,37.220853 -41.752762,35.69024z" class="shp0" fill-rule="evenodd" id="svg_5"/>
 </g>
</svg>