<svg width="1024" height="1024" xmlns="http://www.w3.org/2000/svg" stroke="null" style="vector-effect: non-scaling-stroke;">

 <g stroke="null">
  <title stroke="null">background</title>
  <rect stroke="null" fill="none" id="canvas_background" height="161.999955" width="233.999935" y="-1" x="-1"/>
 </g>
 <g stroke="null">
  <title stroke="null">Layer 1</title>
  <path stroke="null" id="svg_5" fill-rule="evenodd" class="shp0" d="m-245.919279,360.310516c208.283109,68.234562 244.268753,133.132936 185.369319,330.030067c82.875347,30.202864 187.580499,-14.545442 244.268753,-114.117127c-46.889702,-5.582429 -130.848947,1.134259 -210.450906,31.337206c93.779404,-52.577057 164.666794,-52.577057 223.544452,-57.069704c6.546773,-13.411181 15.261344,-43.614046 16.366931,-52.577057c-38.175131,-17.903743 -66.530021,-21.26213 -184.307113,-5.582429c57.793759,-14.545442 110.146337,-29.090883 185.39101,-15.679701c5.441183,-90.608674 -32.712257,-168.918229 -102.515666,-245.003739c68.697902,-13.433377 123.239967,6.71669 179.928136,24.620517c21.8082,6.694494 49.079191,7.828753 70.887391,2.224042c76.328574,-22.374195 152.678753,-46.994628 234.448509,-31.314927c10.904057,2.224042 33.817847,-13.433377 38.175131,-25.732496c18.534729,-50.353015 31.628358,-101.818009 46.889702,-152.171023c55.604272,27.97882 95.968893,101.818009 187.558807,337.881016c44.721904,-3.358387 138.501308,-2.246324 139.585207,2.246324c-63.256633,1.112063 -103.599564,11.187056 -131.954535,30.202864c-1.083899,13.411181 1.10559,24.620517 9.820158,44.748304c104.683461,-6.71669 162.477305,16.791764 190.832195,24.620517c-49.079191,-13.433377 -158.120021,-19.038088 -191.916092,3.358387c21.8082,229.346317 -19.640319,438.542484 -137.417411,628.745122c-208.283109,335.634692 -596.472664,495.612189 -981.432212,408.361816c-367.486943,-82.8022 -648.82524,-396.062697 -704.42951,-785.386511c-75.244675,-523.591008 298.789127,-1009.1504 813.492032,-1059.481133c153.762652,-14.545442 302.062512,2.224042 435.100946,83.891984c53.436475,32.449186 98.136688,85.026243 138.479617,136.491322c29.460563,38.053896 31.628358,88.384629 -5.441183,127.550505c-37.091235,39.165875 -79.601959,29.090883 -119.966579,6.71669c-34.880055,-19.015808 -68.697902,-41.390003 -102.493974,-62.652133c-309.693184,-202.501756 -714.271362,-114.117127 -907.271436,199.14337c-21.8082,35.785293 -40.36462,76.063231 -49.079191,116.341169c-19.618711,91.742932 32.712257,144.319989 123.218275,125.304183c107.956848,-23.486174 184.285422,-90.608674 236.637998,-187.956316c30.544462,-57.047423 57.793759,-116.341169 92.695505,-170.052571c14.177445,-21.26213 40.342929,-52.577057 66.508413,-45.860369c26.187092,6.71669 35.985645,48.106691 38.175131,73.839189c9.820158,97.325363 -17.45083,189.068379 -68.697902,272.982559l0.000083,0.000083l0.000007,0.000002zm752.424802,690.285192c-43.616316,52.577057 -100.326177,76.085511 -164.666794,87.272566c-97.052791,16.769485 -184.285422,55.935443 -243.163163,142.073751c-26.187092,36.919552 -35.985645,79.443814 1.083899,116.363451c34.901746,34.673314 69.781801,16.769485 103.599564,-5.604625c8.714571,-5.582429 17.45083,-12.299119 26.165484,-19.015808c70.887391,-55.935443 140.669106,-115.22919 242.079264,-90.630953c-57.793759,-33.561251 -112.314216,-23.486174 -162.477305,10.075076c-38.15344,24.620517 -70.887391,58.181684 -110.124729,80.555877c-18.55642,11.187056 -58.899349,16.769485 -65.446122,7.828753c-15.261344,-20.127871 -27.249383,-59.293747 -17.429224,-78.309555c19.618711,-36.919552 50.141396,-76.085511 85.043142,-95.101319c57.793759,-29.090883 122.134377,-42.501983 184.285422,-60.405809c54.542065,-13.433377 103.599564,-31.337206 121.050478,-95.101319l0.000083,-0.000083l0.000002,-0.000002zm-1047.940541,116.341169c138.479617,-7.828753 223.544452,-111.870803 208.283109,-236.063007c-13.093546,-102.907792 -71.971287,-174.522937 -148.321469,-236.063007c-27.249383,-22.374195 -49.057499,-41.390003 -79.601959,-7.828753c159.203918,108.534698 214.829882,187.956316 202.841926,295.356754c-10.904057,104.06433 -78.51806,155.529324 -183.201523,184.59793l-0.000083,0.000083zm739.331256,-341.217121c3.273385,10.075076 6.546773,20.127871 8.736262,31.314927c26.165484,126.438525 -66.530021,276.340945 -186.474909,296.491013c-20.724218,3.358387 -52.352576,-5.604625 -65.424514,-21.26213c-9.820158,-12.299119 -4.378975,-45.860369 4.357284,-64.898457c16.34524,-34.673314 42.532418,-63.764113 59.983248,-98.437426c17.429224,-34.695509 23.975997,-71.615145 -19.640319,-111.893085c32.712257,87.272566 -17.45083,134.267194 -54.520374,189.090575c-15.261344,22.374195 -30.544462,64.876175 -19.640319,82.779921c13.093546,22.374195 51.268677,41.390003 79.62365,42.524262c85.043142,4.470366 141.753004,-46.994628 183.201523,-117.475514c44.700213,-72.727124 56.688169,-149.9247 9.798467,-228.234255l0,0.000169zm603.041128,-381.495061c0,-55.957639 -42.532418,-96.235578 -102.515666,-97.347643c-64.318926,-1.112063 -115.587604,45.882565 -115.587604,105.176395c0,51.464994 50.163089,95.07904 106.87295,93.96706c66.530021,-1.112063 111.230319,-42.501983 111.230319,-101.795729l0,-0.000083zm-363.129659,40.255742c1.083899,-53.689122 -31.628358,-91.720736 -78.51806,-92.854995c-56.70986,0 -114.503705,54.823381 -113.398115,110.758741c0,48.106691 33.796156,83.914263 80.685858,85.026243c58.877658,2.246324 110.146337,-45.860369 111.230319,-102.930071l0,0.000083l-0.000002,0zm-1220.238007,102.930071c128.659458,-6.694494 240.995366,-58.159488 347.846624,-127.528309c14.177445,-8.963011 35.985645,-20.150067 44.721904,-15.657505c13.071855,6.694494 23.975997,40.255742 20.724218,58.159488c-6.546773,29.090883 -21.8082,57.069704 -40.36462,81.667942c-15.261344,21.26213 -39.25903,36.919552 -58.877658,54.823381c26.165484,-10.052795 49.079191,-26.844561 67.614003,-45.860369c38.15344,-38.031617 59.961557,-82.8022 42.532418,-139.849623c-12.009647,-39.165875 -30.544462,-52.577057 -65.446122,-24.620517c-107.956848,82.8022 -228.985635,130.908891 -358.750683,158.865432l-0.000083,0.000083l0,-0.000002zm1257.307549,-24.598237c-4.357284,25.732496 25.081585,19.015808 27.271074,39.14368c1.083899,6.71669 10.904057,15.679701 -7.630672,33.561251c-18.534729,17.903743 -70.887391,22.374195 -89.42212,-6.694494c9.820158,45.860369 79.601959,40.255742 103.599564,6.694494c25.081585,38.053896 103.599564,42.524262 126.491661,-13.411181c-35.985645,45.860369 -106.87295,33.561251 -118.860989,5.582429c-5.462874,-12.299119 -1.083899,-23.486174 0,-29.090883c6.546773,-15.657505 30.52277,-10.052795 29.438872,-39.14368c-17.45083,-4.470366 -45.805803,-6.71669 -70.887391,3.358387l0,-0.000002zm219.187166,-187.956316c43.616316,1.112063 78.51806,31.314927 76.328574,69.368823c-2.167798,38.031617 -42.510726,73.839189 -81.769756,74.951252c-38.175131,0 -78.51806,-41.390003 -77.434164,-78.309555c2.189489,-34.695509 42.532418,-66.010436 82.875347,-66.010436l0,-0.000083zm-370.760414,185.709992c-34.901746,-5.582429 -46.889702,-29.090883 -49.079191,-54.823381c-3.251694,-41.390003 33.817847,-82.779921 79.62365,-82.779921c38.15344,0 62.151045,16.769485 61.067147,59.293747c0,40.277938 -28.354973,81.667942 -91.611606,78.309555z"/>
 </g>
</svg>