<svg width="1024" height="1024" xmlns="http://www.w3.org/2000/svg" stroke="null" style="vector-effect: non-scaling-stroke;">

 <g stroke="null">
  <title stroke="null">background</title>
  <rect stroke="null" fill="none" id="canvas_background" height="161.999955" width="233.999935" y="-1" x="-1"/>
 </g>
 <g stroke="null">
  <title stroke="null">Layer 1</title>
  <rect stroke="null" id="svg_1" height="668.999688" width="896.999909" y="305.90624" x="135.500005" stroke-opacity="null" stroke-width="null" fill="#ffffff"/>
  <path stroke="null" id="svg_5" fill-rule="evenodd" class="shp0" d="m-660.284171,399.842045c337.720515,110.638887 396.069416,215.868314 300.566964,535.127044c134.378178,48.972415 304.152281,-23.584698 396.069416,-185.035144c-76.029277,-9.051626 -212.164943,1.839143 -341.235489,50.811693c152.058555,-85.251036 266.99887,-85.251036 362.466011,-92.535636c10.615261,-21.745552 24.745496,-70.717967 26.538151,-85.251036c-61.899043,-29.030013 -107.87506,-34.475467 -298.844652,-9.051626c93.709654,-23.584698 178.596709,-47.169393 300.602136,-25.423841c8.822603,-146.917376 -53.041269,-273.892355 -166.223961,-397.261158c111.390169,-21.781541 199.827366,10.890772 291.744362,39.920921c35.360892,10.854783 79.579423,12.693926 114.940315,3.606172c123.762917,-36.278624 247.560867,-76.19941 380.146387,-50.775568c17.680377,3.606172 54.833927,-21.781541 61.899043,-41.723939c30.053125,-81.644864 51.283782,-165.092746 76.029277,-246.73761c90.159512,45.36624 155.6087,165.092746 304.11711,547.856959c72.514304,-5.445454 224.572858,-3.6423 226.330345,3.6423c-102.567428,1.803154 -167.981448,18.139245 -213.957597,48.972415c-1.757487,21.745552 1.792658,39.920921 15.92289,72.55711c169.738931,-10.890772 263.448724,27.226995 309.424742,39.920921c-79.579423,-21.781541 -256.383609,-30.869295 -311.182225,5.445454c35.360892,371.873441 -31.845783,711.074434 -222.815375,1019.478381c-337.720515,544.214659 -967.150223,803.61007 -1591.342639,662.138008c-595.861472,-134.259575 -1052.037275,-642.19561 -1142.196784,-1273.464462c-122.00543,-848.976309 484.471441,-1636.286278 1319.036141,-1717.895013c249.318354,-23.584698 489.77907,3.606172 705.494154,136.026604c86.644538,52.614712 159.123671,137.865747 224.537687,221.313768c47.768811,61.702466 51.283782,143.311201 -8.822603,206.816685c-60.141559,63.505484 -129.070546,47.169393 -194.519734,10.890772c-56.556242,-30.83317 -111.390169,-67.111795 -166.18879,-101.587262c-502.151817,-328.346345 -1158.154848,-185.035144 -1471.094696,322.900891c-35.360892,58.024041 -65.449188,123.332678 -79.579423,188.641316c-31.810747,148.75652 53.041269,234.007555 199.792195,203.174388c175.046564,-38.081643 298.809481,-146.917376 383.696532,-304.76165c49.526298,-92.499508 93.709654,-188.641316 150.301068,-275.731633c22.988009,-34.475467 65.414016,-85.251036 107.840024,-74.360267c42.461044,10.890772 58.348901,78.002563 61.899043,119.726506c15.92289,157.808149 -28.295638,306.564804 -111.390169,442.627397l0.000135,0.000135l0.000011,0.000004zm1220.018719,1119.262489c-70.721649,85.251036 -162.673816,123.368803 -266.99887,141.508048c-157.366187,27.19087 -298.809481,90.696489 -394.276757,230.365394c-42.461044,59.863184 -58.348901,128.814122 1.757487,188.677444c56.591414,56.221022 113.147656,27.19087 167.981448,-9.087615c14.130235,-9.051626 28.295638,-19.942398 42.426008,-30.83317c114.940315,-90.696489 228.087832,-186.838297 392.51927,-146.953501c-93.709654,-54.417869 -182.111815,-38.081643 -263.448724,16.336226c-61.863871,39.920921 -114.940315,94.338654 -178.561673,130.617275c-30.088296,18.139245 -95.502312,27.19087 -106.117573,12.693926c-24.745496,-32.636324 -44.183495,-96.141808 -28.260605,-126.974978c31.810747,-59.863184 81.301735,-123.368803 137.893149,-154.201973c93.709654,-47.169393 198.034708,-68.914813 298.809481,-97.944962c88.437197,-21.781541 167.981448,-50.811693 196.277221,-154.201973l0.000135,-0.000135l0.000004,-0.000004zm-1699.182528,188.641316c224.537687,-12.693926 362.466011,-181.392844 337.720515,-382.764214c-21.230522,-166.859775 -116.697798,-282.980105 -240.495752,-382.764214c-44.183495,-36.278624 -79.544251,-67.111795 -129.070546,-12.693926c258.141092,175.983518 348.335776,304.76165 328.897912,478.906022c-17.680377,168.735043 -127.313059,252.182925 -297.051994,299.316196l-0.000135,0.000135zm1198.788197,-553.266285c5.307629,16.336226 10.615261,32.636324 14.165406,50.775568c42.426008,205.013667 -107.87506,448.072851 -302.359623,480.745165c-33.60327,5.445454 -84.887051,-9.087615 -106.082537,-34.475467c-15.92289,-19.942398 -7.100287,-74.360267 7.065116,-105.229562c26.502979,-56.221022 68.964162,-103.39028 97.259799,-159.611302c28.260605,-56.257012 38.875866,-116.120331 -31.845783,-181.428972c53.041269,141.508048 -28.295638,217.707457 -88.402025,306.600793c-24.745496,36.278624 -49.526298,105.193434 -31.845783,134.223451c21.230522,36.278624 83.129564,67.111795 129.105717,68.950938c137.893149,7.248472 229.845319,-76.19941 297.051994,-190.480598c72.479132,-117.923349 91.916996,-243.095309 15.887718,-370.070288l0,0.000274zm977.800656,-618.574926c0,-90.732479 -68.964162,-156.041117 -166.223961,-157.844274c-104.289882,-1.803154 -187.419447,74.396256 -187.419447,170.5382c0,83.447882 81.33691,154.165849 173.289077,152.36283c107.87506,-1.803154 180.354331,-68.914813 180.354331,-165.056621l0,-0.000135zm-588.796356,65.272648c1.757487,-87.054193 -51.283782,-148.72053 -127.313059,-150.559673c-91.952167,0 -185.66196,88.893336 -183.869302,179.58969c0,78.002563 54.798756,136.062729 130.828033,137.865747c95.467141,3.6423 178.596709,-74.360267 180.354331,-166.895899l0,0.000135l-0.000004,0zm-1978.554145,166.895899c208.614797,-10.854783 390.761783,-94.302665 564.015689,-206.780695c22.988009,-14.533069 58.348901,-32.672314 72.514304,-25.387852c21.195351,10.854783 38.875866,65.272648 33.60327,94.302665c-10.615261,47.169393 -35.360892,92.535636 -65.449188,132.420432c-24.745496,34.475467 -63.65653,59.863184 -95.467141,88.893336c42.426008,-16.300098 79.579423,-43.527096 109.632682,-74.360267c61.863871,-61.666341 97.224628,-134.259575 68.964162,-226.759083c-19.473035,-63.505484 -49.526298,-85.251036 -106.117573,-39.920921c-175.046564,134.259575 -371.288613,212.262139 -581.696069,257.592254l-0.000135,0.000135l0,-0.000004zm2038.66053,-39.884796c-7.065116,41.723939 40.668521,30.83317 44.218666,63.469494c1.757487,10.890772 17.680377,25.423841 -12.372748,54.417869c-30.053125,29.030013 -114.940315,36.278624 -144.993439,-10.854783c15.92289,74.360267 129.070546,65.272648 167.981448,10.854783c40.668521,61.702466 167.981448,68.950938 205.099823,-21.745552c-58.348901,74.360267 -173.289077,54.417869 -192.727076,9.051626c-8.857774,-19.942398 -1.757487,-38.081643 0,-47.169393c10.615261,-25.387852 49.491127,-16.300098 47.73364,-63.469494c-28.295638,-7.248472 -74.27179,-10.890772 -114.940315,5.445454l0,-0.000004zm355.400891,-304.76165c70.721649,1.803154 127.313059,50.775568 123.762917,112.478034c-3.514974,61.666341 -68.92899,119.726506 -132.58552,121.52966c-61.899043,0 -127.313059,-67.111795 -125.555576,-126.974978c3.550145,-56.257012 68.964162,-107.03258 134.378178,-107.03258l0,-0.000135zm-601.169239,301.11935c-56.591414,-9.051626 -76.029277,-47.169393 -79.579423,-88.893336c-5.272457,-67.111795 54.833927,-134.223451 129.105717,-134.223451c61.863871,0 100.774773,27.19087 99.017286,96.141808c0,65.308638 -45.976153,132.420432 -148.543581,126.974978z"/>
 </g>
</svg>